<?xml version="1.0" encoding="UTF-8" standalone="no"?>
<!-- Created with Inkscape (http://www.inkscape.org/) -->

<svg
   xmlns:dc="http://purl.org/dc/elements/1.1/"
   xmlns:cc="http://creativecommons.org/ns#"
   xmlns:rdf="http://www.w3.org/1999/02/22-rdf-syntax-ns#"
   xmlns:svg="http://www.w3.org/2000/svg"
   xmlns="http://www.w3.org/2000/svg"
   xmlns:sodipodi="http://sodipodi.sourceforge.net/DTD/sodipodi-0.dtd"
   xmlns:inkscape="http://www.inkscape.org/namespaces/inkscape"
   width="802.00006"
   height="802.00006"
   viewBox="0 0 802.00006 802.00008"
   version="1.1"
   id="svg8"
   inkscape:version="0.92.3 (2405546, 2018-03-11)"
   sodipodi:docname="Moire Pattern - Colors.svg"
   inkscape:export-filename="E:\Users\Jim\My Documents\OCC\@Reviews\Serious Statistics AA\Sampling Patterns\Moire Pattern - Full.png"
   inkscape:export-xdpi="96"
   inkscape:export-ydpi="96"
   shape-rendering="crispEdges">
  <sodipodi:namedview
     id="base"
     pagecolor="#ffffff"
     bordercolor="#666666"
     borderopacity="1.0"
     inkscape:pageopacity="0.0"
     inkscape:pageshadow="2"
     inkscape:zoom="0.70710678"
     inkscape:cx="266.96543"
     inkscape:cy="398.6993"
     inkscape:document-units="px"
     inkscape:current-layer="layer2"
     showgrid="false"
     showborder="false"
     units="px"
     fit-margin-top="0"
     fit-margin-left="0"
     fit-margin-right="0"
     fit-margin-bottom="0"
     inkscape:snap-bbox="true"
     inkscape:bbox-paths="true"
     inkscape:bbox-nodes="true"
     showguides="true"
     inkscape:guide-bbox="true">
    <sodipodi:guide
       position="0,0"
       orientation="0,802.00006"
       id="guide1118"
       inkscape:locked="false" />
    <sodipodi:guide
       position="802.00007,0"
       orientation="-802.00006,0"
       id="guide1120"
       inkscape:locked="false" />
    <sodipodi:guide
       position="802.00007,802.00007"
       orientation="0,-802.00006"
       id="guide1122"
       inkscape:locked="false" />
    <sodipodi:guide
       position="0,802.00007"
       orientation="802.00006,0"
       id="guide1124"
       inkscape:locked="false" />
  </sodipodi:namedview>
  <defs
     id="defs2" />
  <metadata
     id="metadata5">
    <rdf:RDF>
      <cc:Work
         rdf:about="">
        <dc:format>image/svg+xml</dc:format>
        <dc:type
           rdf:resource="http://purl.org/dc/dcmitype/StillImage" />
        <dc:title></dc:title>
      </cc:Work>
    </rdf:RDF>
  </metadata>
  <g
     id="layer1"
     inkscape:groupmode="layer"
     inkscape:label="Circular Patterns - Evens"
     transform="translate(-402.56637,395.70638)"
     style="display:inline">
    <g
       id="g6835"
       transform="matrix(2.0025,0,0,2.0025,-805.57531,-5.3068941)"
       style="stroke:#ff0000;stroke-width:0.49937579;stroke-opacity:1">
      <path
         id="path822"
         style="opacity:1;fill:none;fill-opacity:1;stroke:#ff0000;stroke-width:0.49937579;stroke-linecap:butt;stroke-linejoin:miter;stroke-miterlimit:4;stroke-dasharray:none;stroke-dashoffset:0;stroke-opacity:1;paint-order:stroke markers fill"
         d="m 913.56638,5.2936654 a 110,110 0 0 1 -110,110.0000046 110,110 0 0 1 -110,-110.0000046 110,110 0 0 1 110,-110.0000054 110,110 0 0 1 110,110.0000054 z m 5,0 a 115,115 0 0 1 -115,115.0000046 115,115 0 0 1 -115,-115.0000046 115,115 0 0 1 115,-115.0000054 115,115 0 0 1 115,115.0000054 z m 5,0 a 120,120 0 0 1 -120,120.0000046 120,120 0 0 1 -120,-120.0000046 120,120 0 0 1 120,-120.0000054 120,120 0 0 1 120,120.0000054 z m 5,-2e-5 a 125,125 0 0 1 -125,125.0000346 125,125 0 0 1 -125,-125.0000346 125,125 0 0 1 125,-125.0000054 125,125 0 0 1 125,125.0000054 z m 5,0 a 130,130 0 0 1 -130,130.0000346 130,130 0 0 1 -130,-130.0000346 130,130 0 0 1 130,-130.0000054 130,130 0 0 1 130,130.0000054 z m 5,0 a 135,135 0 0 1 -135,135.0000346 135,135 0 0 1 -135,-135.0000346 135,135 0 0 1 135,-135.0000054 135,135 0 0 1 135,135.0000054 z m 5,0 a 140,140 0 0 1 -140,140.0000346 140,140 0 0 1 -140,-140.0000346 140,140 0 0 1 140,-140.0000054 140,140 0 0 1 140,140.0000054 z m 5.00002,0 A 145,145 0 0 1 803.56638,150.29368 a 145,145 0 0 1 -145,-145.0000346 145,145 0 0 1 145,-145.0000054 A 145,145 0 0 1 948.5664,5.2936454 Z m 5,0 A 150,150 0 0 1 803.56638,155.29368 a 150,150 0 0 1 -150,-150.0000346 150,150 0 0 1 150,-150.0000054 A 150,150 0 0 1 953.5664,5.2936454 Z m -45.00002,2e-5 a 105,105 0 0 1 -105,105.0000046 105,105 0 0 1 -105,-105.0000046 105,105 0 0 1 105,-105.0000014 105,105 0 0 1 105,105.0000014 z m 80.00002,-2e-5 A 185,185 0 0 1 803.56638,190.29368 a 185,185 0 0 1 -185,-185.0000346 185,185 0 0 1 185,-185.0000054 A 185,185 0 0 1 988.5664,5.2936454 Z m 10,0 A 195,195 0 0 1 803.56638,200.29368 a 195,195 0 0 1 -195,-195.0000346 195,195 0 0 1 195,-195.0000054 A 195,195 0 0 1 998.5664,5.2936454 Z m -20,-10e-5 A 175,175 0 0 1 803.56638,180.29358 a 175,175 0 0 1 -175,-175.0000346 175,175 0 0 1 175,-174.9998054 A 175,175 0 0 1 978.5664,5.2935454 Z m 5,10e-5 A 180,180 0 0 1 803.56638,185.29368 a 180,180 0 0 1 -180,-180.0000346 180,180 0 0 1 180,-180.0000054 A 180,180 0 0 1 983.5664,5.2936454 Z m -10,0 A 170,170 0 0 1 803.56638,175.29368 a 170,170 0 0 1 -170,-170.0000346 170,170 0 0 1 170,-170.0000054 A 170,170 0 0 1 973.5664,5.2936454 Z m 30,0 A 200,200 0 0 1 803.56638,205.29368 a 200,200 0 0 1 -200,-200.0000346 200,200 0 0 1 200,-200.0000054 200,200 0 0 1 200.00002,200.0000054 z m -10,0 A 190,190 0 0 1 803.56638,195.29368 a 190,190 0 0 1 -190,-190.0000346 190,190 0 0 1 190,-190.0000054 A 190,190 0 0 1 993.5664,5.2936454 Z m -35,0 A 155,155 0 0 1 803.56638,160.29368 a 155,155 0 0 1 -155,-155.0000346 155,155 0 0 1 155,-155.0000054 A 155,155 0 0 1 958.5664,5.2936454 Z m 10,0 A 165,165 0 0 1 803.56638,170.29368 a 165,165 0 0 1 -165,-165.0000346 165,165 0 0 1 165,-165.0000054 A 165,165 0 0 1 968.5664,5.2936454 Z m -5,0 A 160,160 0 0 1 803.56638,165.29368 a 160,160 0 0 1 -160,-160.0000346 160,160 0 0 1 160,-160.0000054 A 160,160 0 0 1 963.5664,5.2936454 Z m -100.00002,2e-5 a 60,60 0 0 1 -60,59.9999996 60,60 0 0 1 -60,-59.9999996 60,60 0 0 1 60,-60.0000004 60,60 0 0 1 60,60.0000004 z m 5,0 a 65,65 0 0 1 -65,64.9999996 65,65 0 0 1 -65,-64.9999996 65,65 0 0 1 65,-65.0000004 65,65 0 0 1 65,65.0000004 z m -10,0 a 55,55 0 0 1 -55,54.9999996 55,55 0 0 1 -55,-54.9999996 55,55 0 0 1 55,-55.0000004 55,55 0 0 1 55,55.0000004 z m 35,0 a 90,90 0 0 1 -90,89.9999996 90,90 0 0 1 -90,-89.9999996 90,90 0 0 1 90,-90.0000014 90,90 0 0 1 90,90.0000014 z m 10,0 a 100,100 0 0 1 -100,100.0000046 100,100 0 0 1 -100,-100.0000046 100,100 0 0 1 100,-100.0000014 100,100 0 0 1 100,100.0000014 z m -30,0 a 70,70 0 0 1 -70,69.9999996 70,70 0 0 1 -70,-69.9999996 70,70 0 0 1 70,-70.0000004 70,70 0 0 1 70,70.0000004 z m 10,0 a 80,80 0 0 1 -80,79.9999996 80,80 0 0 1 -80,-79.9999996 80,80 0 0 1 80,-80.0000014 80,80 0 0 1 80,80.0000014 z m -5,0 a 75,75 0 0 1 -75,74.9999996 75,75 0 0 1 -75,-74.9999996 75,75 0 0 1 75,-75.0000004 75,75 0 0 1 75,75.0000004 z m 20,0 a 95,95 0 0 1 -95,95.0000046 95,95 0 0 1 -95,-95.0000046 95,95 0 0 1 95,-95.0000014 95,95 0 0 1 95,95.0000014 z m -10,0 a 85,85 0 0 1 -85,84.9999996 85,85 0 0 1 -85,-84.9999996 85,85 0 0 1 85,-85.0000014 85,85 0 0 1 85,85.0000014 z m -80,0 a 5,5 0 0 1 -5,4.9999996 5,5 0 0 1 -5,-4.9999996 5,5 0 0 1 5,-5.00000004 5,5 0 0 1 5,5.00000004 z m 45,0 a 50,50 0 0 1 -50,49.9999996 50,50 0 0 1 -50,-49.9999996 50,50 0 0 1 50,-50.0000004 50,50 0 0 1 50,50.0000004 z m -5,0 a 45,45 0 0 1 -45,44.9999996 45,45 0 0 1 -45,-44.9999996 45,45 0 0 1 45,-45.0000004 45,45 0 0 1 45,45.0000004 z m -5,0 a 40,40 0 0 1 -40,39.9999996 40,40 0 0 1 -40,-39.9999996 40,40 0 0 1 40,-40.0000004 40,40 0 0 1 40,40.0000004 z m -5,0 a 35,35 0 0 1 -35,34.9999996 35,35 0 0 1 -35,-34.9999996 35,35 0 0 1 35,-35.0000004 35,35 0 0 1 35,35.0000004 z m -5,0 a 30,30 0 0 1 -30,30.0000006 30,30 0 0 1 -30,-30.0000006 30,30 0 0 1 30,-30.0000004 30,30 0 0 1 30,30.0000004 z m -5,0 a 25,25 0 0 1 -25,25.0000006 25,25 0 0 1 -25,-25.0000006 25,25 0 0 1 25,-25.0000004 25,25 0 0 1 25,25.0000004 z m -5,0 a 20,20 0 0 1 -20,20.0000006 20,20 0 0 1 -20,-20.0000006 20,20 0 0 1 20,-20.0000004 20,20 0 0 1 20,20.0000004 z m -5,0 a 15,15 0 0 1 -15,15.0000006 15,15 0 0 1 -15,-15.0000006 15,15 0 0 1 15,-15 15,15 0 0 1 15,15 z m -5,0 a 10,10 0 0 1 -10,9.9999996 10,10 0 0 1 -10,-9.9999996 10,10 0 0 1 10,-10 10,10 0 0 1 10,10 z"
         inkscape:connector-curvature="0" />
    </g>
  </g>
  <g
     inkscape:groupmode="layer"
     id="layer2"
     inkscape:label="Circular Patterns - Odds"
     style="display:inline"
     transform="translate(4.0601017e-6)">
    <path
       id="path1114"
       style="opacity:1;fill:none;fill-opacity:1;stroke:#0000ff;stroke-width:1;stroke-linecap:butt;stroke-linejoin:miter;stroke-miterlimit:4;stroke-dasharray:none;stroke-dashoffset:0;stroke-opacity:1;paint-order:stroke markers fill"
       d="m 416.00003,401.00003 a 15,15 0 0 1 -15,15 15,15 0 0 1 -15,-15 15,15 0 0 1 15,-15 15,15 0 0 1 15,15 z m 10,0 a 25,25 0 0 1 -25,25 25,25 0 0 1 -25,-25 25,25 0 0 1 25,-25 25,25 0 0 1 25,25 z m 10,0 a 35,35 0 0 1 -35,35 35,35 0 0 1 -35,-35 35,35 0 0 1 35,-35 35,35 0 0 1 35,35 z m 10,0 a 45,45 0 0 1 -45,45 45,45 0 0 1 -45,-45 45,45 0 0 1 45,-45 45,45 0 0 1 45,45 z m 10,0 a 55,55 0 0 1 -55,55 55,55 0 0 1 -55,-55 55,55 0 0 1 55,-55 55,55 0 0 1 55,55 z m 10,0 a 65,65 0 0 1 -65,65 65,65 0 0 1 -65,-65 65,65 0 0 1 65,-65 65,65 0 0 1 65,65 z m 10,0 a 75,75 0 0 1 -75,75 75,75 0 0 1 -75,-75 75,75 0 0 1 75,-75 75,75 0 0 1 75,75 z m 10,0 a 85,85 0 0 1 -85,85 85,85 0 0 1 -85,-85 85,85 0 0 1 85,-85 85,85 0 0 1 85,85 z m 10,0 a 95,95 0 0 1 -95,95 95,95 0 0 1 -95,-95 95,95 0 0 1 95,-95 95,95 0 0 1 95,95 z m 110.25625,0 A 205.25625,205.25625 0 0 1 401.00004,606.25629 205.25625,205.25625 0 0 1 195.74379,401.00003 205.25625,205.25625 0 0 1 401.00004,195.74378 205.25625,205.25625 0 0 1 606.25628,401.00003 Z m 10.0125,2.1e-4 A 215.26875,215.26875 0 0 1 401.00004,616.26859 215.26875,215.26875 0 0 1 185.73129,401.00024 215.26875,215.26875 0 0 1 401.00004,185.73147 215.26875,215.26875 0 0 1 616.26878,401.00024 Z m 10.0125,-2e-4 A 225.28125,225.28125 0 0 1 401.00004,626.28129 225.28125,225.28125 0 0 1 175.71879,401.00004 225.28125,225.28125 0 0 1 401.00004,175.71877 225.28125,225.28125 0 0 1 626.28128,401.00004 Z m 10.0125,0 A 235.29375,235.29375 0 0 1 401.00004,636.29379 235.29375,235.29375 0 0 1 165.70629,401.00004 235.29375,235.29375 0 0 1 401.00004,165.70627 235.29375,235.29375 0 0 1 636.29378,401.00004 Z m 10.0125,0 A 245.30625,245.30625 0 0 1 401.00004,646.30629 245.30625,245.30625 0 0 1 155.69379,401.00004 245.30625,245.30625 0 0 1 401.00004,155.69377 245.30625,245.30625 0 0 1 646.30628,401.00004 Z m 10.0125,-3e-5 A 255.31875,255.31875 0 0 1 401.00004,656.31882 255.31875,255.31875 0 0 1 145.68129,401.00001 255.31875,255.31875 0 0 1 401.00004,145.68124 255.31875,255.31875 0 0 1 656.31878,401.00001 Z m 10.0125,0 A 265.33125,265.33125 0 0 1 401.00004,666.33132 265.33125,265.33125 0 0 1 135.66879,401.00001 265.33125,265.33125 0 0 1 401.00004,135.66874 265.33125,265.33125 0 0 1 666.33128,401.00001 Z m 10.0125,0 A 275.34375,275.34375 0 0 1 401.00004,676.34382 275.34375,275.34375 0 0 1 125.65629,401.00001 275.34375,275.34375 0 0 1 401.00004,125.65624 275.34375,275.34375 0 0 1 676.34378,401.00001 Z m 10.01255,0 A 285.35625,285.35625 0 0 1 400.99999,686.35632 285.35625,285.35625 0 0 1 115.64374,401.00001 285.35625,285.35625 0 0 1 400.99999,115.64374 285.35625,285.35625 0 0 1 686.35633,401.00001 Z m 10.0125,0 A 295.36875,295.36875 0 0 1 400.99999,696.36882 295.36875,295.36875 0 0 1 105.63124,401.00001 295.36875,295.36875 0 0 1 400.99999,105.63124 295.36875,295.36875 0 0 1 696.36883,401.00001 Z m 70.0875,0 A 365.45625,365.45625 0 0 1 400.99999,766.45632 365.45625,365.45625 0 0 1 35.543736,401.00001 365.45625,365.45625 0 0 1 400.99999,35.543741 365.45625,365.45625 0 0 1 766.45633,401.00001 Z m 10.0125,0 A 375.46875,375.46875 0 0 1 400.99999,776.46882 375.46875,375.46875 0 0 1 25.531236,401.00001 375.46875,375.46875 0 0 1 400.99999,25.531241 375.46875,375.46875 0 0 1 776.46883,401.00001 Z m 10.0123,0 A 385.48115,385.48115 0 0 1 401.00019,786.48132 385.48115,385.48115 0 0 1 15.518936,401.00001 385.48115,385.48115 0 0 1 401.00019,15.518741 385.48115,385.48115 0 0 1 786.48113,401.00001 Z m -40.0498,0 A 345.43125,345.43125 0 0 1 400.99999,746.43132 345.43125,345.43125 0 0 1 55.568736,401.00001 345.43125,345.43125 0 0 1 400.99999,55.568741 345.43125,345.43125 0 0 1 746.43133,401.00001 Z m 50.0625,0 A 395.49377,395.49377 0 0 1 400.99999,796.49382 395.49377,395.49377 0 0 1 5.5062355,401.00001 395.49377,395.49377 0 0 1 400.99999,5.5062405 395.49377,395.49377 0 0 1 796.49383,401.00001 Z m -80.1,0 A 315.39375,315.39375 0 0 1 400.99999,716.39382 315.39375,315.39375 0 0 1 85.606236,401.00001 315.39375,315.39375 0 0 1 400.99999,85.606241 315.39375,315.39375 0 0 1 716.39383,401.00001 Z m 20.025,0 A 335.41875,335.41875 0 0 1 400.99999,736.41882 335.41875,335.41875 0 0 1 65.581236,401.00001 335.41875,335.41875 0 0 1 400.99999,65.581241 335.41875,335.41875 0 0 1 736.41883,401.00001 Z m -10.0125,0 A 325.40625,325.40625 0 0 1 400.99999,726.40632 325.40625,325.40625 0 0 1 75.593736,401.00001 325.40625,325.40625 0 0 1 400.99999,75.593741 325.40625,325.40625 0 0 1 726.40633,401.00001 Z m -20.025,0 A 305.38125,305.38125 0 0 1 400.99999,706.38132 305.38125,305.38125 0 0 1 95.618736,401.00001 305.38125,305.38125 0 0 1 400.99999,95.618741 305.38125,305.38125 0 0 1 706.38133,401.00001 Z m 50.0625,0 A 355.44375,355.44375 0 0 1 400.99999,756.44382 355.44375,355.44375 0 0 1 45.556236,401.00001 355.44375,355.44375 0 0 1 400.99999,45.556241 355.44375,355.44375 0 0 1 756.44383,401.00001 Z m -200.25005,3e-5 A 155.19375,155.19375 0 0 1 401.00003,556.19378 155.19375,155.19375 0 0 1 245.80628,401.00004 155.19375,155.19375 0 0 1 401.00003,245.80628 155.19375,155.19375 0 0 1 556.19378,401.00004 Z m -50.0625,-1e-5 A 105.13125,105.13125 0 0 1 401.00003,506.13128 105.13125,105.13125 0 0 1 295.86878,401.00003 105.13125,105.13125 0 0 1 401.00003,295.86878 105.13125,105.13125 0 0 1 506.13128,401.00003 Z m 20.025,0 A 125.15625,125.15625 0 0 1 401.00003,526.15628 125.15625,125.15625 0 0 1 275.84378,401.00003 125.15625,125.15625 0 0 1 401.00003,275.84378 125.15625,125.15625 0 0 1 526.15628,401.00003 Z m 10.0125,1e-5 A 135.16875,135.16875 0 0 1 401.00003,536.16878 135.16875,135.16875 0 0 1 265.83128,401.00004 135.16875,135.16875 0 0 1 401.00003,265.83128 135.16875,135.16875 0 0 1 536.16878,401.00004 Z m -20.025,-1e-5 A 115.14375,115.14375 0 0 1 401.00003,516.14378 115.14375,115.14375 0 0 1 285.85628,401.00003 115.14375,115.14375 0 0 1 401.00003,285.85628 115.14375,115.14375 0 0 1 516.14378,401.00003 Z m 80.1,0 A 195.24375,195.24375 0 0 1 401.00004,596.24379 195.24375,195.24375 0 0 1 205.75629,401.00003 195.24375,195.24375 0 0 1 401.00004,205.75628 195.24375,195.24375 0 0 1 596.24378,401.00003 Z m -50.0625,1e-5 A 145.18125,145.18125 0 0 1 401.00003,546.18128 145.18125,145.18125 0 0 1 255.81878,401.00004 145.18125,145.18125 0 0 1 401.00003,255.81878 145.18125,145.18125 0 0 1 546.18128,401.00004 Z m 40.05,0 A 185.23125,185.23125 0 0 1 401.00004,586.23128 185.23125,185.23125 0 0 1 215.76879,401.00004 185.23125,185.23125 0 0 1 401.00004,215.76878 185.23125,185.23125 0 0 1 586.23128,401.00004 Z m -10.0125,0 A 175.21875,175.21875 0 0 1 401.00003,576.21878 175.21875,175.21875 0 0 1 225.78128,401.00004 175.21875,175.21875 0 0 1 401.00003,225.78128 175.21875,175.21875 0 0 1 576.21878,401.00004 Z m -10.0125,0 A 165.20625,165.20625 0 0 1 401.00003,566.20628 165.20625,165.20625 0 0 1 235.79378,401.00004 165.20625,165.20625 0 0 1 401.00003,235.79378 165.20625,165.20625 0 0 1 566.20628,401.00004 Z"
       inkscape:connector-curvature="0" />
  </g>
</svg>
