<?xml version="1.0" encoding="UTF-8" standalone="no"?>
<!-- Created with Inkscape (http://www.inkscape.org/) -->

<svg
   xmlns:dc="http://purl.org/dc/elements/1.1/"
   xmlns:cc="http://creativecommons.org/ns#"
   xmlns:rdf="http://www.w3.org/1999/02/22-rdf-syntax-ns#"
   xmlns:svg="http://www.w3.org/2000/svg"
   xmlns="http://www.w3.org/2000/svg"
   xmlns:sodipodi="http://sodipodi.sourceforge.net/DTD/sodipodi-0.dtd"
   xmlns:inkscape="http://www.inkscape.org/namespaces/inkscape"
   width="400"
   height="400"
   viewBox="0 0 400 400.00001"
   version="1.1"
   id="svg8"
   inkscape:version="0.92.3 (2405546, 2018-03-11)"
   sodipodi:docname="Moire Pattern 1.svg"
   inkscape:export-filename="E:\Users\Jim\My Documents\OCC\@Reviews\Serious Statistics AA\Sampling Patterns\Moire Pattern - Full.png"
   inkscape:export-xdpi="96"
   inkscape:export-ydpi="96">
  <sodipodi:namedview
     id="base"
     pagecolor="#ffffff"
     bordercolor="#666666"
     borderopacity="1.0"
     inkscape:pageopacity="0.0"
     inkscape:pageshadow="2"
     inkscape:zoom="0.70710678"
     inkscape:cx="102.52041"
     inkscape:cy="475.25924"
     inkscape:document-units="px"
     inkscape:current-layer="layer1"
     showgrid="false"
     showborder="false"
     units="px"
     fit-margin-top="0"
     fit-margin-left="0"
     fit-margin-right="0"
     fit-margin-bottom="0"
     inkscape:snap-bbox="true"
     inkscape:bbox-paths="true"
     inkscape:bbox-nodes="true"
     showguides="true"
     inkscape:guide-bbox="true">
    <sodipodi:guide
       position="-1.4451659e-005,4.51e-005"
       orientation="0,400.00003"
       id="guide925"
       inkscape:locked="false" />
    <sodipodi:guide
       position="400.00003,4.51e-005"
       orientation="-400,0"
       id="guide927"
       inkscape:locked="false" />
    <sodipodi:guide
       position="400.00003,400.00005"
       orientation="0,-400.00003"
       id="guide929"
       inkscape:locked="false" />
    <sodipodi:guide
       position="-1.4451659e-005,400.00005"
       orientation="400,0"
       id="guide931"
       inkscape:locked="false" />
  </sodipodi:namedview>
  <defs
     id="defs2" />
  <metadata
     id="metadata5">
    <rdf:RDF>
      <cc:Work
         rdf:about="">
        <dc:format>image/svg+xml</dc:format>
        <dc:type
           rdf:resource="http://purl.org/dc/dcmitype/StillImage" />
        <dc:title></dc:title>
      </cc:Work>
    </rdf:RDF>
  </metadata>
  <g
     id="layer1"
     inkscape:groupmode="layer"
     inkscape:label="Circular Patterns"
     transform="translate(-178.06639,194.2063)"
     style="display:inline">
    <g
       id="g6831"
       transform="translate(1.4451659e-5,1.0000551)"
       style="stroke-width:1">
      <path
         inkscape:connector-curvature="0"
         d="M 378.06633,4.7936484 369.77839,-195.03455 M 378.06633,4.7936484 318.34145,-186.0805 M 378.06629,4.7936704 270.97462,-164.11866 M 378.06629,4.7936704 230.90596,-130.64575 M 378.06636,4.7936494 200.86609,-87.942876 M 378.06636,4.7936494 182.90206,-38.92016 M 378.06637,4.7936384 178.23818,13.081586 M 378.06637,4.7936384 187.19223,64.518516 M 378.06637,4.7936504 209.15405,111.88533 M 378.06637,4.7936504 242.62695,151.95398 M 378.06638,4.7936464 285.32986,181.99391 M 378.06638,4.7936464 334.35257,199.95794 M 378.06636,4.7936554 386.35431,204.62185 M 378.06636,4.7936554 437.79124,195.66779 M 378.06637,4.7936404 485.15804,173.70595 M 378.06637,4.7936404 525.2267,140.23305 M 378.06637,4.7936374 555.26664,97.530166 M 378.06637,4.7936374 573.23067,48.507446 M 378.06637,4.7936474 577.89456,-3.4943006 M 378.06637,4.7936474 568.94051,-54.931229 M 378.06636,4.7936454 546.97868,-102.29803 M 378.06636,4.7936454 513.50578,-142.36669 M 378.06637,4.7936444 470.8029,-172.40663 M 378.06637,4.7936444 421.78018,-190.37066 M 378.06641,4.7936534 343.76655,-192.2432 M 378.06641,4.7936534 293.93841,-176.65188 M 378.06643,4.7936454 249.84346,-148.69534 M 378.06643,4.7936454 214.48668,-110.27879 M 378.06641,4.7936464 190.27757,-64.020229 M 378.06641,4.7936464 178.86598,-13.072133 M 378.06641,4.7936544 181.02956,39.093512 M 378.06641,4.7936544 196.62088,88.921656 M 378.06641,4.7936484 224.57743,133.01661 M 378.06641,4.7936484 262.99397,168.37339 M 378.0664,4.7936484 309.25253,192.58248 M 378.0664,4.7936484 360.20062,203.99408 M 378.06642,4.7936504 412.36628,201.83049 M 378.06642,4.7936504 462.19442,186.23917 M 378.06642,4.7936474 506.28938,158.28262 M 378.06642,4.7936474 541.64616,119.86609 M 378.06642,4.7936484 565.85526,73.607526 M 378.06642,4.7936484 577.26685,22.659427 M 378.06642,4.7936494 575.10326,-29.506208 M 378.06642,4.7936494 559.51195,-79.334346 M 378.06639,4.7936404 531.55537,-123.42933 M 378.06639,4.7936404 493.13882,-158.78612 M 378.06641,4.7936494 446.88029,-182.9952 M 378.06641,4.7936494 395.93219,-194.40679 M 378.06637,4.7936454 358.46293,-194.2433 M 378.06637,4.7936454 307.61636,-182.38755 M 378.06638,4.7936464 261.57084,-157.77569 M 378.06638,4.7936464 223.46429,-122.08501 M 378.06638,4.7936484 195.89362,-77.747746 M 378.06638,4.7936484 180.73771,-27.785447 M 378.06639,4.7936494 179.02945,24.397086 M 378.06639,4.7936494 190.88521,75.243656 M 378.06638,4.7936434 215.49706,121.28919 M 378.06638,4.7936434 251.18773,159.39573 M 378.06639,4.7936464 295.52499,186.9664 M 378.06639,4.7936464 345.48729,202.12231 M 378.06638,4.7936394 397.66982,203.83057 M 378.06638,4.7936394 448.51639,191.97482 M 378.06639,4.7936384 494.56193,167.36296 M 378.06639,4.7936384 532.66848,131.67229 M 378.06639,4.7936454 560.23916,87.335046 M 378.06639,4.7936454 575.39506,37.372741 M 378.06639,4.7936474 577.10333,-14.809789 M 378.06639,4.7936474 565.24757,-65.656359 M 378.06643,4.7936574 540.63576,-111.70189 M 378.06643,4.7936574 504.94508,-149.80843 M 378.06639,4.7936454 460.60779,-177.37913 M 378.06639,4.7936454 410.64548,-192.53503 M 378.0664,4.7936434 332.65114,-189.98175 M 378.0664,4.7936434 283.78706,-171.59062 M 378.06638,4.7936424 241.34792,-141.17916 M 378.06638,4.7936424 208.22595,-100.81993 M 378.06639,4.7936484 186.67832,-53.263279 M 378.06639,4.7936484 178.17347,-1.7501686 M 378.06638,4.7936414 183.29099,50.208896 M 378.06638,4.7936414 201.68213,99.072986 M 378.06638,4.7936434 232.09358,141.5121 M 378.06638,4.7936434 272.45281,174.63407 M 378.06638,4.7936424 320.00946,196.1817 M 378.06638,4.7936424 371.52257,204.68655 M 378.06639,4.7936554 423.48165,199.56904 M 378.06639,4.7936554 472.34573,181.1779 M 378.06639,4.7936434 514.78485,150.76644 M 378.06639,4.7936434 547.90682,110.40722 M 378.06639,4.7936384 569.45446,62.850566 M 378.06639,4.7936384 577.95931,11.337455 M 378.06636,4.7936244 572.84175,-40.621639 M 378.06636,4.7936244 554.45061,-89.485716 M 378.06641,4.7936534 524.03921,-131.92481 M 378.06641,4.7936534 483.67998,-165.04679 M 378.06639,4.7936454 436.12331,-186.59443 M 378.06639,4.7936454 384.6102,-195.09928 M 378.06635,4.7936464 363.24465,-194.65639 M 378.06635,4.7936464 312.12822,-184.02416 M 378.06631,4.7936684 265.50533,-160.52428 M 378.06631,4.7936684 226.55332,-125.75828 M 378.06638,4.7936414 197.92673,-82.095396 M 378.06638,4.7936414 181.5763,-32.511166 M 378.06639,4.7936384 178.61636,19.615343 M 378.06639,4.7936384 189.24859,70.731766 M 378.06639,4.7936374 212.74845,117.35463 M 378.06639,4.7936374 247.51444,156.30663 M 378.06639,4.7936424 291.17735,184.93328 M 378.06639,4.7936424 340.76158,201.28372 M 378.06639,4.7936494 392.8881,204.24367 M 378.06639,4.7936494 444.00452,193.61145 M 378.06638,4.7936494 490.62737,170.11158 M 378.06638,4.7936494 529.57938,135.34559 M 378.06638,4.7936404 558.20603,91.682686 M 378.06638,4.7936404 574.55646,42.098447 M 378.06639,4.7936444 577.51642,-10.028062 M 378.06639,4.7936444 566.88419,-61.144489 M 378.0664,4.7936494 543.38434,-107.76734 M 378.0664,4.7936494 508.61835,-146.71935 M 378.06639,4.7936424 464.95543,-175.34601 M 378.06639,4.7936424 415.3712,-191.69644 M 378.06639,4.7936414 337.33804,-191.01545 M 378.06639,4.7936414 288.04671,-173.80215 M 378.06639,4.7936444 244.89005,-144.41782 M 378.06639,4.7936444 210.80916,-104.865 M 378.06639,4.7936494 188.12657,-57.839099 M 378.06639,4.7936494 178.38806,-6.5449086 M 378.0664,4.7936454 182.25731,45.522002 M 378.0664,4.7936454 199.47061,94.813336 M 378.06639,4.7936454 228.85493,137.96997 M 378.06639,4.7936454 268.40775,172.05087 M 378.06638,4.7936374 315.43363,194.73345 M 378.06638,4.7936374 366.72782,204.47196 M 378.06639,4.7936434 418.79475,200.60273 M 378.06639,4.7936434 468.08608,183.38943 M 378.06638,4.7936534 511.24272,154.00511 M 378.06638,4.7936534 545.32362,114.4523 M 378.06639,4.7936404 568.00621,67.426396 M 378.06639,4.7936404 577.74473,16.132198 M 378.06639,4.7936474 573.87548,-35.934711 M 378.06639,4.7936474 556.66218,-85.226036 M 378.06637,4.7936414 527.27784,-128.3827 M 378.06637,4.7936414 487.72502,-162.4636 M 378.06639,4.7936444 440.69914,-185.14619 M 378.06639,4.7936444 389.40494,-194.8847 M 378.06636,4.7936504 351.96111,-193.49532 M 378.06636,4.7936504 301.52967,-179.98226 M 378.06637,4.7936514 256.31408,-153.87701 M 378.06637,4.7936514 219.3957,-116.95864 M 378.06637,4.7936604 193.29047,-71.743016 M 378.06637,4.7936604 179.7774,-21.311579 M 378.06638,4.7936394 179.77741,30.898886 M 378.06638,4.7936394 193.29047,81.330326 M 378.06637,4.7936444 219.39571,126.54594 M 378.06637,4.7936444 256.31408,163.46431 M 378.06639,4.7936484 301.52971,189.56955 M 378.06639,4.7936484 351.96115,203.08261 M 378.06638,4.7936534 404.17163,203.08261 M 378.06638,4.7936534 454.60307,189.56955 M 378.06638,4.7936554 499.81867,163.46431 M 378.06638,4.7936554 536.73705,126.54594 M 378.06637,4.7936494 562.84228,81.330326 M 378.06637,4.7936494 576.35535,30.898889 M 378.06638,4.7936564 576.35535,-21.31159 M 378.06638,4.7936564 562.84229,-71.743026 M 378.06636,4.7936434 536.73702,-116.95865 M 378.06636,4.7936434 499.81865,-153.87703 M 378.06638,4.7936474 454.60306,-179.98226 M 378.06638,4.7936474 404.17162,-193.49533 M 378.06638,4.7936514 326.30256,-188.39151 m 51.76382,193.1851614 -100,-173.2050914 M 378.06635,4.7936724 236.645,-136.62768 M 378.06635,4.7936724 204.86127,-95.206326 M 378.06638,4.7936464 184.88122,-46.970159 M 378.06638,4.7936464 h -200 m 200.00002,1e-6 L 184.88124,56.557466 M 378.0664,4.7936474 204.86132,104.79365 M 378.06638,4.7936524 236.64503,146.215 M 378.06638,4.7936524 l -100,173.2050776 M 378.06639,4.7936564 326.30259,197.97881 M 378.06639,4.7936564 V 204.79365 M 378.0664,4.7936504 429.83022,197.9788 M 378.0664,4.7936504 l 100,173.2050796 M 378.06638,4.7936534 519.48774,146.21499 M 378.06638,4.7936534 551.27147,104.79366 M 378.06639,4.7936364 571.25155,56.557436 M 378.06639,4.7936364 h 200 m -199.99996,3.7e-5 193.18516,-51.7638124 M 378.06643,4.7936734 551.27151,-95.206326 M 378.06641,4.7936554 519.48776,-136.62771 M 378.06641,4.7936554 l 100,-173.2050854 M 378.06639,4.7936464 429.83019,-188.39152 M 378.06639,4.7936464 V -195.20636"
         style="fill:none;fill-rule:evenodd;stroke:#000000;stroke-width:1px;stroke-linecap:butt;stroke-linejoin:miter;stroke-opacity:1"
         id="path2126" />
    </g>
  </g>
</svg>
