<?xml version="1.0" encoding="UTF-8" standalone="no"?>
<!-- Created with Inkscape (http://www.inkscape.org/) -->

<svg
   xmlns:dc="http://purl.org/dc/elements/1.1/"
   xmlns:cc="http://creativecommons.org/ns#"
   xmlns:rdf="http://www.w3.org/1999/02/22-rdf-syntax-ns#"
   xmlns:svg="http://www.w3.org/2000/svg"
   xmlns="http://www.w3.org/2000/svg"
   xmlns:sodipodi="http://sodipodi.sourceforge.net/DTD/sodipodi-0.dtd"
   xmlns:inkscape="http://www.inkscape.org/namespaces/inkscape"
   width="401.00003"
   height="401.00003"
   viewBox="0 0 401.00003 401.00004"
   version="1.1"
   id="svg8"
   inkscape:version="0.92.3 (2405546, 2018-03-11)"
   sodipodi:docname="Moire Pattern 2.svg"
   inkscape:export-filename="E:\Users\Jim\My Documents\OCC\@Reviews\Serious Statistics AA\Sampling Patterns\Moire Pattern - Full.png"
   inkscape:export-xdpi="96"
   inkscape:export-ydpi="96">
  <sodipodi:namedview
     id="base"
     pagecolor="#ffffff"
     bordercolor="#666666"
     borderopacity="1.0"
     inkscape:pageopacity="0.0"
     inkscape:pageshadow="2"
     inkscape:zoom="0.70710678"
     inkscape:cx="218.88211"
     inkscape:cy="421.32676"
     inkscape:document-units="px"
     inkscape:current-layer="layer2"
     showgrid="false"
     showborder="false"
     units="px"
     fit-margin-top="0"
     fit-margin-left="0"
     fit-margin-right="0"
     fit-margin-bottom="0"
     inkscape:snap-bbox="true"
     inkscape:bbox-paths="true"
     inkscape:bbox-nodes="true"
     showguides="true"
     inkscape:guide-bbox="true">
    <sodipodi:guide
       position="-5.9940393e-005,3.902445e-005"
       orientation="0,802.00006"
       id="guide1118"
       inkscape:locked="false" />
    <sodipodi:guide
       position="802.00001,3.902445e-005"
       orientation="-802.00006,0"
       id="guide1120"
       inkscape:locked="false" />
    <sodipodi:guide
       position="802.00001,802.00011"
       orientation="0,-802.00006"
       id="guide1122"
       inkscape:locked="false" />
    <sodipodi:guide
       position="-5.9940393e-005,802.00011"
       orientation="802.00006,0"
       id="guide1124"
       inkscape:locked="false" />
  </sodipodi:namedview>
  <defs
     id="defs2" />
  <metadata
     id="metadata5">
    <rdf:RDF>
      <cc:Work
         rdf:about="">
        <dc:format>image/svg+xml</dc:format>
        <dc:type
           rdf:resource="http://purl.org/dc/dcmitype/StillImage" />
        <dc:title></dc:title>
      </cc:Work>
    </rdf:RDF>
  </metadata>
  <g
     id="layer1"
     inkscape:groupmode="layer"
     inkscape:label="Circular Patterns - Evens"
     transform="translate(-402.56643,-5.2936799)"
     style="display:inline">
    <g
       id="g6835"
       transform="translate(-200.49995,200.50004)"
       style="stroke:#000000;stroke-width:1.00000012;stroke-opacity:1">
      <path
         id="path822"
         style="opacity:1;fill:none;fill-opacity:1;stroke:#000000;stroke-width:1.00000012;stroke-linecap:butt;stroke-linejoin:miter;stroke-miterlimit:4;stroke-dasharray:none;stroke-dashoffset:0;stroke-opacity:1;paint-order:stroke markers fill"
         d="m 913.56638,5.2936654 a 110,110 0 0 1 -110,110.0000046 110,110 0 0 1 -110,-110.0000046 110,110 0 0 1 110,-110.0000054 110,110 0 0 1 110,110.0000054 z m 5,0 a 115,115 0 0 1 -115,115.0000046 115,115 0 0 1 -115,-115.0000046 115,115 0 0 1 115,-115.0000054 115,115 0 0 1 115,115.0000054 z m 5,0 a 120,120 0 0 1 -120,120.0000046 120,120 0 0 1 -120,-120.0000046 120,120 0 0 1 120,-120.0000054 120,120 0 0 1 120,120.0000054 z m 5,-2e-5 a 125,125 0 0 1 -125,125.0000346 125,125 0 0 1 -125,-125.0000346 125,125 0 0 1 125,-125.0000054 125,125 0 0 1 125,125.0000054 z m 5,0 a 130,130 0 0 1 -130,130.0000346 130,130 0 0 1 -130,-130.0000346 130,130 0 0 1 130,-130.0000054 130,130 0 0 1 130,130.0000054 z m 5,0 a 135,135 0 0 1 -135,135.0000346 135,135 0 0 1 -135,-135.0000346 135,135 0 0 1 135,-135.0000054 135,135 0 0 1 135,135.0000054 z m 5,0 a 140,140 0 0 1 -140,140.0000346 140,140 0 0 1 -140,-140.0000346 140,140 0 0 1 140,-140.0000054 140,140 0 0 1 140,140.0000054 z m 5.00002,0 A 145,145 0 0 1 803.56638,150.29368 a 145,145 0 0 1 -145,-145.0000346 145,145 0 0 1 145,-145.0000054 A 145,145 0 0 1 948.5664,5.2936454 Z m 5,0 A 150,150 0 0 1 803.56638,155.29368 a 150,150 0 0 1 -150,-150.0000346 150,150 0 0 1 150,-150.0000054 A 150,150 0 0 1 953.5664,5.2936454 Z m -45.00002,2e-5 a 105,105 0 0 1 -105,105.0000046 105,105 0 0 1 -105,-105.0000046 105,105 0 0 1 105,-105.0000014 105,105 0 0 1 105,105.0000014 z m 80.00002,-2e-5 A 185,185 0 0 1 803.56638,190.29368 a 185,185 0 0 1 -185,-185.0000346 185,185 0 0 1 185,-185.0000054 A 185,185 0 0 1 988.5664,5.2936454 Z m 10,0 A 195,195 0 0 1 803.56638,200.29368 a 195,195 0 0 1 -195,-195.0000346 195,195 0 0 1 195,-195.0000054 A 195,195 0 0 1 998.5664,5.2936454 Z m -20,-10e-5 A 175,175 0 0 1 803.56638,180.29358 a 175,175 0 0 1 -175,-175.0000346 175,175 0 0 1 175,-174.9998054 A 175,175 0 0 1 978.5664,5.2935454 Z m 5,10e-5 A 180,180 0 0 1 803.56638,185.29368 a 180,180 0 0 1 -180,-180.0000346 180,180 0 0 1 180,-180.0000054 A 180,180 0 0 1 983.5664,5.2936454 Z m -10,0 A 170,170 0 0 1 803.56638,175.29368 a 170,170 0 0 1 -170,-170.0000346 170,170 0 0 1 170,-170.0000054 A 170,170 0 0 1 973.5664,5.2936454 Z m 30,0 A 200,200 0 0 1 803.56638,205.29368 a 200,200 0 0 1 -200,-200.0000346 200,200 0 0 1 200,-200.0000054 200,200 0 0 1 200.00002,200.0000054 z m -10,0 A 190,190 0 0 1 803.56638,195.29368 a 190,190 0 0 1 -190,-190.0000346 190,190 0 0 1 190,-190.0000054 A 190,190 0 0 1 993.5664,5.2936454 Z m -35,0 A 155,155 0 0 1 803.56638,160.29368 a 155,155 0 0 1 -155,-155.0000346 155,155 0 0 1 155,-155.0000054 A 155,155 0 0 1 958.5664,5.2936454 Z m 10,0 A 165,165 0 0 1 803.56638,170.29368 a 165,165 0 0 1 -165,-165.0000346 165,165 0 0 1 165,-165.0000054 A 165,165 0 0 1 968.5664,5.2936454 Z m -5,0 A 160,160 0 0 1 803.56638,165.29368 a 160,160 0 0 1 -160,-160.0000346 160,160 0 0 1 160,-160.0000054 A 160,160 0 0 1 963.5664,5.2936454 Z m -100.00002,2e-5 a 60,60 0 0 1 -60,59.9999996 60,60 0 0 1 -60,-59.9999996 60,60 0 0 1 60,-60.0000004 60,60 0 0 1 60,60.0000004 z m 5,0 a 65,65 0 0 1 -65,64.9999996 65,65 0 0 1 -65,-64.9999996 65,65 0 0 1 65,-65.0000004 65,65 0 0 1 65,65.0000004 z m -10,0 a 55,55 0 0 1 -55,54.9999996 55,55 0 0 1 -55,-54.9999996 55,55 0 0 1 55,-55.0000004 55,55 0 0 1 55,55.0000004 z m 35,0 a 90,90 0 0 1 -90,89.9999996 90,90 0 0 1 -90,-89.9999996 90,90 0 0 1 90,-90.0000014 90,90 0 0 1 90,90.0000014 z m 10,0 a 100,100 0 0 1 -100,100.0000046 100,100 0 0 1 -100,-100.0000046 100,100 0 0 1 100,-100.0000014 100,100 0 0 1 100,100.0000014 z m -30,0 a 70,70 0 0 1 -70,69.9999996 70,70 0 0 1 -70,-69.9999996 70,70 0 0 1 70,-70.0000004 70,70 0 0 1 70,70.0000004 z m 10,0 a 80,80 0 0 1 -80,79.9999996 80,80 0 0 1 -80,-79.9999996 80,80 0 0 1 80,-80.0000014 80,80 0 0 1 80,80.0000014 z m -5,0 a 75,75 0 0 1 -75,74.9999996 75,75 0 0 1 -75,-74.9999996 75,75 0 0 1 75,-75.0000004 75,75 0 0 1 75,75.0000004 z m 20,0 a 95,95 0 0 1 -95,95.0000046 95,95 0 0 1 -95,-95.0000046 95,95 0 0 1 95,-95.0000014 95,95 0 0 1 95,95.0000014 z m -10,0 a 85,85 0 0 1 -85,84.9999996 85,85 0 0 1 -85,-84.9999996 85,85 0 0 1 85,-85.0000014 85,85 0 0 1 85,85.0000014 z m -80,0 a 5,5 0 0 1 -5,4.9999996 5,5 0 0 1 -5,-4.9999996 5,5 0 0 1 5,-5.00000004 5,5 0 0 1 5,5.00000004 z m 45,0 a 50,50 0 0 1 -50,49.9999996 50,50 0 0 1 -50,-49.9999996 50,50 0 0 1 50,-50.0000004 50,50 0 0 1 50,50.0000004 z m -5,0 a 45,45 0 0 1 -45,44.9999996 45,45 0 0 1 -45,-44.9999996 45,45 0 0 1 45,-45.0000004 45,45 0 0 1 45,45.0000004 z m -5,0 a 40,40 0 0 1 -40,39.9999996 40,40 0 0 1 -40,-39.9999996 40,40 0 0 1 40,-40.0000004 40,40 0 0 1 40,40.0000004 z m -5,0 a 35,35 0 0 1 -35,34.9999996 35,35 0 0 1 -35,-34.9999996 35,35 0 0 1 35,-35.0000004 35,35 0 0 1 35,35.0000004 z m -5,0 a 30,30 0 0 1 -30,30.0000006 30,30 0 0 1 -30,-30.0000006 30,30 0 0 1 30,-30.0000004 30,30 0 0 1 30,30.0000004 z m -5,0 a 25,25 0 0 1 -25,25.0000006 25,25 0 0 1 -25,-25.0000006 25,25 0 0 1 25,-25.0000004 25,25 0 0 1 25,25.0000004 z m -5,0 a 20,20 0 0 1 -20,20.0000006 20,20 0 0 1 -20,-20.0000006 20,20 0 0 1 20,-20.0000004 20,20 0 0 1 20,20.0000004 z m -5,0 a 15,15 0 0 1 -15,15.0000006 15,15 0 0 1 -15,-15.0000006 15,15 0 0 1 15,-15 15,15 0 0 1 15,15 z m -5,0 a 10,10 0 0 1 -10,9.9999996 10,10 0 0 1 -10,-9.9999996 10,10 0 0 1 10,-10 10,10 0 0 1 10,10 z"
         inkscape:connector-curvature="0" />
    </g>
  </g>
  <g
     inkscape:groupmode="layer"
     id="layer2"
     inkscape:label="Circular Patterns - Odds"
     style="display:inline"
     transform="translate(-5.5880291e-5,-401.00006)">
    <path
       id="path1114"
       style="opacity:1;fill:none;fill-opacity:1;stroke:#000000;stroke-width:1;stroke-linecap:butt;stroke-linejoin:miter;stroke-miterlimit:4;stroke-dasharray:none;stroke-dashoffset:0;stroke-opacity:1;paint-order:stroke markers fill"
       d="m 207.99063,601.50007 a 7.490636,7.490636 0 0 1 -7.49064,7.49064 7.490636,7.490636 0 0 1 -7.49064,-7.49064 7.490636,7.490636 0 0 1 7.49064,-7.49063 7.490636,7.490636 0 0 1 7.49064,7.49063 z m 4.99375,0 a 12.484393,12.484393 0 0 1 -12.48439,12.4844 12.484393,12.484393 0 0 1 -12.48439,-12.4844 12.484393,12.484393 0 0 1 12.48439,-12.48439 12.484393,12.484393 0 0 1 12.48439,12.48439 z m 4.99376,0 a 17.478151,17.478151 0 0 1 -17.47815,17.47815 17.478151,17.478151 0 0 1 -17.47815,-17.47815 17.478151,17.478151 0 0 1 17.47815,-17.47815 17.478151,17.478151 0 0 1 17.47815,17.47815 z m 4.99376,0 a 22.471908,22.471908 0 0 1 -22.47191,22.47191 22.471908,22.471908 0 0 1 -22.47191,-22.47191 22.471908,22.471908 0 0 1 22.47191,-22.47191 22.471908,22.471908 0 0 1 22.47191,22.47191 z m 4.99376,0 a 27.465665,27.465665 0 0 1 -27.46567,27.46567 27.465665,27.465665 0 0 1 -27.46566,-27.46567 27.465665,27.465665 0 0 1 27.46566,-27.46566 27.465665,27.465665 0 0 1 27.46567,27.46566 z m 4.99375,0 a 32.459422,32.459422 0 0 1 -32.45942,32.45943 32.459422,32.459422 0 0 1 -32.45942,-32.45943 32.459422,32.459422 0 0 1 32.45942,-32.45942 32.459422,32.459422 0 0 1 32.45942,32.45942 z m 4.99376,0 a 37.45318,37.45318 0 0 1 -37.45318,37.45318 37.45318,37.45318 0 0 1 -37.45318,-37.45318 37.45318,37.45318 0 0 1 37.45318,-37.45318 37.45318,37.45318 0 0 1 37.45318,37.45318 z m 4.99376,0 a 42.446937,42.446937 0 0 1 -42.44694,42.44694 42.446937,42.446937 0 0 1 -42.44694,-42.44694 42.446937,42.446937 0 0 1 42.44694,-42.44693 42.446937,42.446937 0 0 1 42.44694,42.44693 z m 4.99376,0 a 47.440694,47.440694 0 0 1 -47.4407,47.4407 47.440694,47.440694 0 0 1 -47.44069,-47.4407 47.440694,47.440694 0 0 1 47.44069,-47.44069 47.440694,47.440694 0 0 1 47.4407,47.44069 z m 55.05929,0 A 102.49999,102.49999 0 0 1 200.5,704.00007 102.49999,102.49999 0 0 1 98.000006,601.50007 102.49999,102.49999 0 0 1 200.5,499.00008 102.49999,102.49999 0 0 1 302.99998,601.50007 Z m 5,1.1e-4 A 107.49999,107.49999 0 0 1 200.5,708.99997 107.49999,107.49999 0 0 1 93.000007,601.50018 107.49999,107.49999 0 0 1 200.5,494.00018 a 107.49999,107.49999 0 0 1 107.49998,107.5 z m 5,-10e-5 A 112.49999,112.49999 0 0 1 200.5,714.00007 112.49999,112.49999 0 0 1 88.000007,601.50008 112.49999,112.49999 0 0 1 200.5,489.00008 a 112.49999,112.49999 0 0 1 112.49998,112.5 z m 5,0 A 117.49999,117.49999 0 0 1 200.5,719.00007 117.49999,117.49999 0 0 1 83.000008,601.50008 117.49999,117.49999 0 0 1 200.5,484.00008 a 117.49999,117.49999 0 0 1 117.49998,117.5 z m 5,0 A 122.49999,122.49999 0 0 1 200.5,724.00007 122.49999,122.49999 0 0 1 78.000008,601.50008 122.49999,122.49999 0 0 1 200.5,479.00008 a 122.49999,122.49999 0 0 1 122.49998,122.5 z m 5,-2e-5 A 127.49999,127.49999 0 0 1 200.5,729.00008 127.49999,127.49999 0 0 1 73.000009,601.50006 127.49999,127.49999 0 0 1 200.5,474.00007 127.49999,127.49999 0 0 1 327.99998,601.50006 Z m 5,0 A 132.49999,132.49999 0 0 1 200.5,734.00008 132.49999,132.49999 0 0 1 68.000009,601.50006 132.49999,132.49999 0 0 1 200.5,469.00007 132.49999,132.49999 0 0 1 332.99998,601.50006 Z m 5,0 A 137.49999,137.49999 0 0 1 200.5,739.00008 137.49999,137.49999 0 0 1 63.00001,601.50006 137.49999,137.49999 0 0 1 200.5,464.00007 137.49999,137.49999 0 0 1 337.99998,601.50006 Z m 5.00002,0 A 142.49999,142.49999 0 0 1 200.49997,744.00008 142.49999,142.49999 0 0 1 57.999985,601.50006 142.49999,142.49999 0 0 1 200.49997,459.00007 142.49999,142.49999 0 0 1 343,601.50006 Z m 5,0 A 147.49999,147.49999 0 0 1 200.49997,749.00008 147.49999,147.49999 0 0 1 52.999986,601.50006 147.49999,147.49999 0 0 1 200.49997,454.00007 147.49999,147.49999 0 0 1 348,601.50006 Z m 35,0 A 182.49998,182.49998 0 0 1 200.49997,784.00007 182.49998,182.49998 0 0 1 17.999987,601.50006 182.49998,182.49998 0 0 1 200.49997,419.00007 182.49998,182.49998 0 0 1 383,601.50006 Z m 5,0 A 187.49998,187.49998 0 0 1 200.49997,789.00007 187.49998,187.49998 0 0 1 12.999988,601.50006 187.49998,187.49998 0 0 1 200.49997,414.00007 187.49998,187.49998 0 0 1 388,601.50006 Z m 4.9999,0 A 192.49993,192.49993 0 0 1 200.50007,794.00007 192.49993,192.49993 0 0 1 8.0000881,601.50006 192.49993,192.49993 0 0 1 200.50007,409.00007 192.49993,192.49993 0 0 1 392.9999,601.50006 Z m -19.9999,0 A 172.49998,172.49998 0 0 1 200.49997,774.00008 172.49998,172.49998 0 0 1 27.999986,601.50006 172.49998,172.49998 0 0 1 200.49997,429.00007 172.49998,172.49998 0 0 1 373,601.50006 Z m 25,0 A 197.49999,197.49999 0 0 1 200.49997,799.00007 197.49999,197.49999 0 0 1 2.9999884,601.50006 197.49999,197.49999 0 0 1 200.49997,404.00007 197.49999,197.49999 0 0 1 398,601.50006 Z m -40,0 A 157.49998,157.49998 0 0 1 200.49997,759.00008 157.49998,157.49998 0 0 1 42.999985,601.50006 157.49998,157.49998 0 0 1 200.49997,444.00007 157.49998,157.49998 0 0 1 358,601.50006 Z m 10,0 A 167.49998,167.49998 0 0 1 200.49997,769.00008 167.49998,167.49998 0 0 1 32.999986,601.50006 167.49998,167.49998 0 0 1 200.49997,434.00007 167.49998,167.49998 0 0 1 368,601.50006 Z m -5,0 A 162.49998,162.49998 0 0 1 200.49997,764.00008 162.49998,162.49998 0 0 1 37.999985,601.50006 162.49998,162.49998 0 0 1 200.49997,439.00007 162.49998,162.49998 0 0 1 363,601.50006 Z m -10,0 A 152.49998,152.49998 0 0 1 200.49997,754.00008 152.49998,152.49998 0 0 1 47.999984,601.50006 152.49998,152.49998 0 0 1 200.49997,449.00007 152.49998,152.49998 0 0 1 353,601.50006 Z m 25,0 A 177.49998,177.49998 0 0 1 200.49997,779.00007 177.49998,177.49998 0 0 1 22.999987,601.50006 177.49998,177.49998 0 0 1 200.49997,424.00007 177.49998,177.49998 0 0 1 378,601.50006 Z m -100.00002,2e-5 A 77.499992,77.499992 0 0 1 200.49999,679.00006 77.499992,77.499992 0 0 1 123,601.50008 a 77.499992,77.499992 0 0 1 77.49999,-77.5 77.499992,77.499992 0 0 1 77.49999,77.5 z m -24.99999,-10e-6 a 52.499995,52.499995 0 0 1 -52.5,52.5 52.499995,52.499995 0 0 1 -52.49999,-52.5 52.499995,52.499995 0 0 1 52.49999,-52.49999 52.499995,52.499995 0 0 1 52.5,52.49999 z m 9.99999,0 a 62.499994,62.499994 0 0 1 -62.49999,62.5 62.499994,62.499994 0 0 1 -62.49999,-62.5 62.499994,62.499994 0 0 1 62.49999,-62.49999 62.499994,62.499994 0 0 1 62.49999,62.49999 z m 5,10e-6 A 67.499993,67.499993 0 0 1 200.49999,669.00007 67.499993,67.499993 0 0 1 133,601.50008 a 67.499993,67.499993 0 0 1 67.49999,-67.5 67.499993,67.499993 0 0 1 67.49999,67.5 z m -10,-10e-6 a 57.499994,57.499994 0 0 1 -57.49999,57.5 57.499994,57.499994 0 0 1 -57.49999,-57.5 57.499994,57.499994 0 0 1 57.49999,-57.49999 57.499994,57.499994 0 0 1 57.49999,57.49999 z m 40,0 a 97.49999,97.49999 0 0 1 -97.49998,97.5 97.49999,97.49999 0 0 1 -97.49999,-97.5 97.49999,97.49999 0 0 1 97.49999,-97.49999 97.49999,97.49999 0 0 1 97.49998,97.49999 z m -25,10e-6 A 72.499993,72.499993 0 0 1 200.49999,674.00007 72.499993,72.499993 0 0 1 128,601.50008 a 72.499993,72.499993 0 0 1 72.49999,-72.5 72.499993,72.499993 0 0 1 72.49999,72.5 z m 20,0 A 92.499991,92.499991 0 0 1 200.5,694.00006 a 92.499991,92.499991 0 0 1 -92.49999,-92.49998 92.499991,92.499991 0 0 1 92.49999,-92.5 92.499991,92.499991 0 0 1 92.49998,92.5 z m -5,0 A 87.499991,87.499991 0 0 1 200.49999,689.00006 87.499991,87.499991 0 0 1 113,601.50008 a 87.499991,87.499991 0 0 1 87.49999,-87.5 87.499991,87.499991 0 0 1 87.49999,87.5 z m -5,0 A 82.499992,82.499992 0 0 1 200.49999,684.00006 82.499992,82.499992 0 0 1 118,601.50008 a 82.499992,82.499992 0 0 1 82.49999,-82.5 82.499992,82.499992 0 0 1 82.49999,82.5 z"
       inkscape:connector-curvature="0" />
  </g>
</svg>
